<svg xmlns="http://www.w3.org/2000/svg" direction="ltr" width="499.40" height="476.00" viewBox="442.60 78.19 499.40 476.00" stroke-linecap="round" stroke-linejoin="round" style="background-color: transparent;"><defs/><g transform="matrix(1, 0, 0, 1, 474.6, 345.4)" opacity="1"><path d="M7,0.0098 L176.4823,0.2471 Q183.4823,0.2569 183.53,7.2567 L184.6423,170.342 Q184.69,177.3418 177.69,177.3238 L7.9255,176.8865 Q0.9256,176.8685 0.88,169.8686 L-0.1138,7.7335 Q-0.1568,0.7336 6.84,0.7479 L177.9748,1.0967 Q184.9748,1.111 184.93,8.1109 L183.9233,170.5274 Q183.8798,177.5273 176.87,177.4958 L6.2002,176.7288 Q-0.7997,176.6973 -0.7229,169.6977 L1.0526,7.9051 Q1.1294,0.9055 7,0.0098 " fill="none" stroke="#1d1d1d" stroke-width="3.5"/></g><g transform="matrix(1, 0, 0, 1, 593.20, 283)" opacity="1"><path d="M7,0.0186 L129.348,0.3444 Q136.348,0.3631 136.26,7.3626 L135.0023,117.0813 Q134.9216,124.0809 127.92,124.1309 L6.9934,124.9954 Q-0.0064,125.0454 -0.0006,118.0454 L0.0912,6.8704 Q0.097,-0.1296 7.09,-0.1726 L129.163,-0.9228 Q136.1628,-0.9658 136.04,6.0332 L134.1641,117.4705 Q134.046,124.4695 127.04,124.3911 L7.7798,123.0565 Q0.7802,122.9782 0.74,115.9782 L0.243,7.4189 Q0.2105,0.419 7,0.0186 " fill="none" stroke="#1d1d1d" stroke-width="3.5"/></g><g transform="matrix(1, 0, 0, 1, 658.80, 110.2)" opacity="1"><path d="M7,0.0066 L243.6769,0.2296 Q250.6769,0.2362 250.66,7.2362 L250.2607,229.8566 Q250.248,236.8566 243.24,236.8755 L6.2895,237.5167 Q-0.7105,237.5356 -0.6862,230.5356 L0.0902,6.6645 Q0.1144,-0.3355 7.11,-0.3563 L244.2352,-1.0616 Q251.2352,-1.0825 251.22,5.9175 L251.0157,229.9474 Q251.009,236.9474 244.00,236.9682 L7.9329,237.6691 Q0.933,237.6898 0.88,230.69 L-0.5493,7.3084 Q-0.5943,0.3085 7,0.0066 " fill="none" stroke="#1d1d1d" stroke-width="3.5"/></g></svg>